<svg width="28" height="22" viewBox="0 0 28 22" fill="none" xmlns="http://www.w3.org/2000/svg">
<path d="M24.7727 0H2.56269C1.14734 0 0 1.2312 0 2.75V19.25C0 20.7688 1.14734 22 2.56269 22H24.7727C26.188 22 27.3353 20.7688 27.3353 19.25V2.75C27.3353 1.2312 26.188 0 24.7727 0ZM24.7727 2.75V5.08779C23.5756 6.13387 21.6671 7.7605 17.5871 11.1888C16.688 11.9477 14.9069 13.771 13.6677 13.7498C12.4286 13.7713 10.647 11.9474 9.7482 11.1888C5.66888 7.76102 3.75995 6.13405 2.56269 5.08779V2.75H24.7727ZM2.56269 19.25V8.61655C3.78605 9.66218 5.52094 11.1295 8.16526 13.3515C9.33219 14.3372 11.3758 16.5132 13.6677 16.4999C15.9483 16.5132 17.966 14.3688 19.1696 13.3519C21.8139 11.13 23.5492 9.6623 24.7727 8.61661V19.25H2.56269Z" fill="#FFC900"/>
</svg>
