<svg width="37" height="24" viewBox="0 0 37 24" fill="none" xmlns="http://www.w3.org/2000/svg">
<path d="M36.362 23.9802H0.63796C0.285665 23.9802 0 23.6978 0 23.3496V0.650102C0 0.301888 0.285665 0.0195312 0.63796 0.0195312H36.362C36.7143 0.0195312 37 0.301888 37 0.650102V23.3496C36.9999 23.6979 36.7143 23.9802 36.362 23.9802Z" fill="#F5F5F5"/>
<path d="M36.9999 1.86275H0V0.650102C0 0.301888 0.285665 0.0195312 0.63796 0.0195312H36.362C36.7143 0.0195312 37 0.301888 37 0.650102L36.9999 1.86275Z" fill="#FF4B55"/>
<path d="M36.9999 7.39209H0V9.23523H36.9999V7.39209Z" fill="#FF4B55"/>
<path d="M36.9999 3.70557H0V5.54871H36.9999V3.70557Z" fill="#FF4B55"/>
<path d="M36.9999 12.9213H0.63796C0.285665 12.9213 0 12.639 0 12.2908V11.0781H36.9999V12.9213Z" fill="#FF4B55"/>
<path d="M36.9999 18.4512H0V20.2943H36.9999V18.4512Z" fill="#FF4B55"/>
<path d="M36.362 23.9804H0.63796C0.285665 23.9804 0 23.698 0 23.3498V22.1372H36.9999V23.3499C36.9999 23.6981 36.7143 23.9804 36.362 23.9804Z" fill="#FF4B55"/>
<path d="M36.9999 14.7646H0V16.6078H36.9999V14.7646Z" fill="#FF4B55"/>
<path d="M16.5862 0.0200195H0.63796C0.285665 0.0200195 0 0.302305 0 0.650519V12.2912C0 12.6394 0.285665 12.9218 0.63796 12.9218H16.5862C16.9385 12.9218 17.2242 12.6394 17.2242 12.2912V0.650519C17.2241 0.302305 16.9385 0.0200195 16.5862 0.0200195Z" fill="#41479B"/>
<path d="M1.79144 1.46692L1.93265 1.88549L2.37903 1.88885C2.43685 1.88935 2.46077 1.96221 2.4143 1.99614L2.05521 2.25828L2.18992 2.67892C2.2074 2.73335 2.14461 2.77849 2.09756 2.74521L1.73443 2.48871L1.37129 2.74528C1.32425 2.77849 1.26159 2.73342 1.27894 2.67899L1.41364 2.25835L1.05455 1.99621C1.00809 1.96221 1.03201 1.88942 1.08982 1.88892L1.5362 1.88556L1.67741 1.46699C1.69562 1.41271 1.77309 1.41271 1.79144 1.46692Z" fill="#F5F5F5"/>
<path d="M1.79144 3.65632L1.93265 4.07489L2.37903 4.07825C2.43685 4.07875 2.46077 4.15161 2.4143 4.18553L2.05521 4.44768L2.18992 4.86832C2.2074 4.92275 2.14461 4.96789 2.09756 4.93461L1.73443 4.67811L1.37129 4.93468C1.32425 4.96789 1.26159 4.92282 1.27894 4.86839L1.41364 4.44775L1.05455 4.18561C1.00809 4.15161 1.03201 4.07882 1.08982 4.07832L1.5362 4.07496L1.67741 3.65639C1.69562 3.60218 1.77309 3.60218 1.79144 3.65632Z" fill="#F5F5F5"/>
<path d="M1.79144 5.84626L1.93265 6.26483L2.37903 6.26819C2.43685 6.26869 2.46077 6.34155 2.4143 6.37548L2.05521 6.63762L2.18992 7.05826C2.2074 7.11269 2.14461 7.15783 2.09756 7.12455L1.73443 6.86805L1.37129 7.12462C1.32425 7.15783 1.26159 7.11276 1.27894 7.05833L1.41364 6.63769L1.05455 6.37555C1.00809 6.34155 1.03201 6.26876 1.08982 6.26826L1.5362 6.2649L1.67741 5.84633C1.69562 5.79212 1.77309 5.79212 1.79144 5.84626Z" fill="#F5F5F5"/>
<path d="M1.79144 8.03577L1.93265 8.45434L2.37903 8.4577C2.43685 8.4582 2.46077 8.53105 2.4143 8.56498L2.05521 8.82713L2.18992 9.24777C2.2074 9.3022 2.14461 9.34734 2.09756 9.31405L1.73443 9.05755L1.37129 9.31412C1.32425 9.34734 1.26159 9.30227 1.27894 9.24784L1.41364 8.8272L1.05455 8.56505C1.00809 8.53105 1.03201 8.45827 1.08982 8.45777L1.5362 8.45441L1.67741 8.03584C1.69562 7.98155 1.77309 7.98155 1.79144 8.03577Z" fill="#F5F5F5"/>
<path d="M1.79144 10.2253L1.93265 10.6438L2.37903 10.6472C2.43685 10.6477 2.46077 10.7206 2.4143 10.7545L2.05521 11.0166L2.18992 11.4373C2.2074 11.4917 2.14461 11.5368 2.09756 11.5036L1.73443 11.2471L1.37129 11.5036C1.32425 11.5368 1.26159 11.4918 1.27894 11.4373L1.41364 11.0167L1.05455 10.7546C1.00809 10.7206 1.03201 10.6478 1.08982 10.6473L1.5362 10.6439L1.67741 10.2253C1.69562 10.171 1.77309 10.171 1.79144 10.2253Z" fill="#F5F5F5"/>
<path d="M3.51093 2.54061L3.65213 2.95918L4.09852 2.96254C4.15633 2.96304 4.18025 3.03589 4.13378 3.06982L3.7747 3.33196L3.9094 3.75261C3.92689 3.80704 3.86409 3.85218 3.81704 3.81889L3.45391 3.56232L3.09078 3.81889C3.04373 3.85211 2.98108 3.80704 2.99842 3.75261L3.13312 3.33196L2.77404 3.06982C2.72757 3.03582 2.75149 2.96304 2.8093 2.96254L3.25568 2.95918L3.39689 2.54061C3.41503 2.48646 3.49264 2.48646 3.51093 2.54061Z" fill="#F5F5F5"/>
<path d="M3.51093 4.73011L3.65213 5.14869L4.09852 5.15204C4.15633 5.15254 4.18025 5.2254 4.13378 5.25933L3.7747 5.52147L3.9094 5.94211C3.92689 5.99654 3.86409 6.04169 3.81704 6.0084L3.45391 5.75183L3.09078 6.0084C3.04373 6.04161 2.98108 5.99661 2.99842 5.94211L3.13312 5.52147L2.77404 5.25933C2.72757 5.22533 2.75149 5.15254 2.8093 5.15204L3.25568 5.14869L3.39689 4.73011C3.41503 4.6759 3.49264 4.6759 3.51093 4.73011Z" fill="#F5F5F5"/>
<path d="M3.51093 6.91957L3.65213 7.33814L4.09852 7.3415C4.15633 7.342 4.18025 7.41485 4.13378 7.44878L3.7747 7.71092L3.9094 8.13157C3.92689 8.18599 3.86409 8.23114 3.81704 8.19785L3.45391 7.94128L3.09078 8.19785C3.04373 8.23107 2.98108 8.18599 2.99842 8.13157L3.13312 7.71092L2.77404 7.44878C2.72757 7.41478 2.75149 7.342 2.8093 7.3415L3.25568 7.33814L3.39689 6.91957C3.41503 6.86535 3.49264 6.86535 3.51093 6.91957Z" fill="#F5F5F5"/>
<path d="M3.51093 9.10945L3.65213 9.52803L4.09852 9.53138C4.15633 9.53188 4.18025 9.60474 4.13378 9.63867L3.7747 9.90081L3.9094 10.3215C3.92689 10.3759 3.86409 10.421 3.81704 10.3877L3.45391 10.1312L3.09078 10.3877C3.04373 10.421 2.98108 10.3759 2.99842 10.3215L3.13312 9.90081L2.77404 9.63867C2.72757 9.60467 2.75149 9.53188 2.8093 9.53138L3.25568 9.52803L3.39689 9.10945C3.41503 9.05531 3.49264 9.05531 3.51093 9.10945Z" fill="#F5F5F5"/>
<path d="M5.23017 1.46693L5.37137 1.8855L5.81776 1.88886C5.87557 1.88936 5.89949 1.96222 5.85302 1.99614L5.49394 2.25829L5.62864 2.67893C5.64613 2.73336 5.58333 2.7785 5.53628 2.74522L5.17315 2.48864L4.81001 2.74522C4.76297 2.77843 4.70031 2.73336 4.71766 2.67893L4.85236 2.25829L4.49327 1.99614C4.44681 1.96214 4.47073 1.88936 4.52854 1.88886L4.97492 1.8855L5.11613 1.46693C5.13434 1.41272 5.21188 1.41272 5.23017 1.46693Z" fill="#F5F5F5"/>
<path d="M5.23017 3.65633L5.37137 4.0749L5.81776 4.07826C5.87557 4.07876 5.89949 4.15162 5.85302 4.18554L5.49394 4.44769L5.62864 4.86833C5.64613 4.92276 5.58333 4.9679 5.53628 4.93462L5.17315 4.67804L4.81001 4.93462C4.76297 4.96783 4.70031 4.92276 4.71766 4.86833L4.85236 4.44769L4.49327 4.18554C4.44681 4.15154 4.47073 4.07876 4.52854 4.07826L4.97492 4.0749L5.11613 3.65633C5.13434 3.60219 5.21188 3.60219 5.23017 3.65633Z" fill="#F5F5F5"/>
<path d="M5.23017 5.84627L5.37137 6.26484L5.81776 6.2682C5.87557 6.2687 5.89949 6.34156 5.85302 6.37549L5.49394 6.63763L5.62864 7.05827C5.64613 7.1127 5.58333 7.15785 5.53628 7.12456L5.17315 6.86799L4.81001 7.12456C4.76297 7.15777 4.70031 7.1127 4.71766 7.05827L4.85236 6.63763L4.49327 6.37549C4.44681 6.34149 4.47073 6.2687 4.52854 6.2682L4.97492 6.26484L5.11613 5.84627C5.13434 5.79213 5.21188 5.79213 5.23017 5.84627Z" fill="#F5F5F5"/>
<path d="M5.23017 8.03578L5.37137 8.45435L5.81776 8.45771C5.87557 8.45821 5.89949 8.53106 5.85302 8.56499L5.49394 8.82713L5.62864 9.24778C5.64613 9.30221 5.58333 9.34735 5.53628 9.31406L5.17315 9.05749L4.81001 9.31406C4.76297 9.34728 4.70031 9.30221 4.71766 9.24778L4.85236 8.82713L4.49327 8.56499C4.44681 8.53099 4.47073 8.45821 4.52854 8.45771L4.97492 8.45435L5.11613 8.03578C5.13434 7.98156 5.21188 7.98156 5.23017 8.03578Z" fill="#F5F5F5"/>
<path d="M5.23017 10.2253L5.37137 10.6439L5.81776 10.6472C5.87557 10.6477 5.89949 10.7206 5.85302 10.7545L5.49394 11.0166L5.62864 11.4373C5.64613 11.4917 5.58333 11.5369 5.53628 11.5036L5.17315 11.247L4.81001 11.5036C4.76297 11.5368 4.70031 11.4917 4.71766 11.4373L4.85236 11.0166L4.49327 10.7545C4.44681 10.7205 4.47073 10.6477 4.52854 10.6472L4.97492 10.6439L5.11613 10.2253C5.13434 10.171 5.21188 10.171 5.23017 10.2253Z" fill="#F5F5F5"/>
<path d="M6.94965 2.54061L7.09085 2.95918L7.53724 2.96254C7.59505 2.96304 7.61897 3.03589 7.5725 3.06982L7.21342 3.33196L7.34812 3.75261C7.36561 3.80704 7.30281 3.85218 7.25576 3.81889L6.89263 3.56232L6.5295 3.81889C6.48245 3.85211 6.4198 3.80704 6.43714 3.75261L6.57184 3.33196L6.21276 3.06982C6.16629 3.03582 6.19021 2.96304 6.24802 2.96254L6.69441 2.95918L6.83561 2.54061C6.85375 2.48646 6.93136 2.48646 6.94965 2.54061Z" fill="#F5F5F5"/>
<path d="M6.94965 4.73011L7.09085 5.14869L7.53724 5.15204C7.59505 5.15254 7.61897 5.2254 7.5725 5.25933L7.21342 5.52147L7.34812 5.94211C7.36561 5.99654 7.30281 6.04169 7.25576 6.0084L6.89263 5.75183L6.5295 6.0084C6.48245 6.04161 6.4198 5.99661 6.43714 5.94211L6.57184 5.52147L6.21276 5.25933C6.16629 5.22533 6.19021 5.15254 6.24802 5.15204L6.69441 5.14869L6.83561 4.73011C6.85375 4.6759 6.93136 4.6759 6.94965 4.73011Z" fill="#F5F5F5"/>
<path d="M6.94965 6.91957L7.09085 7.33814L7.53724 7.3415C7.59505 7.342 7.61897 7.41485 7.5725 7.44878L7.21342 7.71092L7.34812 8.13157C7.36561 8.18599 7.30281 8.23114 7.25576 8.19785L6.89263 7.94128L6.5295 8.19785C6.48245 8.23107 6.4198 8.18599 6.43714 8.13157L6.57184 7.71092L6.21276 7.44878C6.16629 7.41478 6.19021 7.342 6.24802 7.3415L6.69441 7.33814L6.83561 6.91957C6.85375 6.86535 6.93136 6.86535 6.94965 6.91957Z" fill="#F5F5F5"/>
<path d="M6.94965 9.10945L7.09085 9.52803L7.53724 9.53138C7.59505 9.53188 7.61897 9.60474 7.5725 9.63867L7.21342 9.90081L7.34812 10.3215C7.36561 10.3759 7.30281 10.421 7.25576 10.3877L6.89263 10.1312L6.5295 10.3877C6.48245 10.421 6.4198 10.3759 6.43714 10.3215L6.57184 9.90081L6.21276 9.63867C6.16629 9.60467 6.19021 9.53188 6.24802 9.53138L6.69441 9.52803L6.83561 9.10945C6.85375 9.05531 6.93136 9.05531 6.94965 9.10945Z" fill="#F5F5F5"/>
<path d="M8.6692 1.46693L8.81041 1.8855L9.25679 1.88886C9.31461 1.88936 9.33853 1.96222 9.29206 1.99614L8.93297 2.25829L9.06767 2.67893C9.08516 2.73336 9.02236 2.7785 8.97532 2.74522L8.61211 2.48864L8.24898 2.74522C8.20193 2.77843 8.13928 2.73336 8.15662 2.67893L8.29133 2.25829L7.93224 1.99614C7.88577 1.96214 7.90969 1.88936 7.9675 1.88886L8.41389 1.8855L8.5551 1.46693C8.57338 1.41272 8.65092 1.41272 8.6692 1.46693Z" fill="#F5F5F5"/>
<path d="M8.6692 3.65633L8.81041 4.0749L9.25679 4.07826C9.31461 4.07876 9.33853 4.15162 9.29206 4.18554L8.93297 4.44769L9.06767 4.86833C9.08516 4.92276 9.02236 4.9679 8.97532 4.93462L8.61211 4.67804L8.24898 4.93462C8.20193 4.96783 8.13928 4.92276 8.15662 4.86833L8.29133 4.44769L7.93224 4.18554C7.88577 4.15154 7.90969 4.07876 7.9675 4.07826L8.41389 4.0749L8.5551 3.65633C8.57338 3.60219 8.65092 3.60219 8.6692 3.65633Z" fill="#F5F5F5"/>
<path d="M8.6692 5.84627L8.81041 6.26484L9.25679 6.2682C9.31461 6.2687 9.33853 6.34156 9.29206 6.37549L8.93297 6.63763L9.06767 7.05827C9.08516 7.1127 9.02236 7.15785 8.97532 7.12456L8.61211 6.86799L8.24898 7.12456C8.20193 7.15777 8.13928 7.1127 8.15662 7.05827L8.29133 6.63763L7.93224 6.37549C7.88577 6.34149 7.90969 6.2687 7.9675 6.2682L8.41389 6.26484L8.5551 5.84627C8.57338 5.79213 8.65092 5.79213 8.6692 5.84627Z" fill="#F5F5F5"/>
<path d="M8.6692 8.03578L8.81041 8.45435L9.25679 8.45771C9.31461 8.45821 9.33853 8.53106 9.29206 8.56499L8.93297 8.82713L9.06767 9.24778C9.08516 9.30221 9.02236 9.34735 8.97532 9.31406L8.61211 9.05749L8.24898 9.31406C8.20193 9.34728 8.13928 9.30221 8.15662 9.24778L8.29133 8.82713L7.93224 8.56499C7.88577 8.53099 7.90969 8.45821 7.9675 8.45771L8.41389 8.45435L8.5551 8.03578C8.57338 7.98156 8.65092 7.98156 8.6692 8.03578Z" fill="#F5F5F5"/>
<path d="M8.6692 10.2253L8.81041 10.6439L9.25679 10.6472C9.31461 10.6477 9.33853 10.7206 9.29206 10.7545L8.93297 11.0166L9.06767 11.4373C9.08516 11.4917 9.02236 11.5369 8.97532 11.5036L8.61211 11.247L8.24898 11.5036C8.20193 11.5368 8.13928 11.4917 8.15662 11.4373L8.29133 11.0166L7.93224 10.7545C7.88577 10.7205 7.90969 10.6477 7.9675 10.6472L8.41389 10.6439L8.5551 10.2253C8.57338 10.171 8.65092 10.171 8.6692 10.2253Z" fill="#F5F5F5"/>
<path d="M10.3886 2.54061L10.5298 2.95918L10.9762 2.96254C11.034 2.96304 11.0579 3.03589 11.0115 3.06982L10.6524 3.33196L10.7871 3.75261C10.8046 3.80704 10.7418 3.85218 10.6947 3.81889L10.3316 3.56232L9.96846 3.81889C9.92142 3.85211 9.85876 3.80704 9.87611 3.75261L10.0108 3.33196L9.65172 3.06982C9.60525 3.03582 9.62917 2.96304 9.68699 2.96254L10.1334 2.95918L10.2746 2.54061C10.2929 2.48646 10.3703 2.48646 10.3886 2.54061Z" fill="#F5F5F5"/>
<path d="M10.3886 4.73011L10.5298 5.14869L10.9762 5.15204C11.034 5.15254 11.0579 5.2254 11.0115 5.25933L10.6524 5.52147L10.7871 5.94211C10.8046 5.99654 10.7418 6.04169 10.6947 6.0084L10.3316 5.75183L9.96846 6.0084C9.92142 6.04161 9.85876 5.99661 9.87611 5.94211L10.0108 5.52147L9.65172 5.25933C9.60525 5.22533 9.62917 5.15254 9.68699 5.15204L10.1334 5.14869L10.2746 4.73011C10.2929 4.6759 10.3703 4.6759 10.3886 4.73011Z" fill="#F5F5F5"/>
<path d="M10.3886 6.91957L10.5298 7.33814L10.9762 7.3415C11.034 7.342 11.0579 7.41485 11.0115 7.44878L10.6524 7.71092L10.7871 8.13157C10.8046 8.18599 10.7418 8.23114 10.6947 8.19785L10.3316 7.94128L9.96846 8.19785C9.92142 8.23107 9.85876 8.18599 9.87611 8.13157L10.0108 7.71092L9.65172 7.44878C9.60525 7.41478 9.62917 7.342 9.68699 7.3415L10.1334 7.33814L10.2746 6.91957C10.2929 6.86535 10.3703 6.86535 10.3886 6.91957Z" fill="#F5F5F5"/>
<path d="M10.3886 9.10945L10.5298 9.52803L10.9762 9.53138C11.034 9.53188 11.0579 9.60474 11.0115 9.63867L10.6524 9.90081L10.7871 10.3215C10.8046 10.3759 10.7418 10.421 10.6947 10.3877L10.3316 10.1312L9.96846 10.3877C9.92142 10.421 9.85876 10.3759 9.87611 10.3215L10.0108 9.90081L9.65172 9.63867C9.60525 9.60467 9.62917 9.53188 9.68699 9.53138L10.1334 9.52803L10.2746 9.10945C10.2929 9.05531 10.3703 9.05531 10.3886 9.10945Z" fill="#F5F5F5"/>
<path d="M12.1081 1.46693L12.2493 1.8855L12.6957 1.88886C12.7535 1.88936 12.7774 1.96222 12.731 1.99614L12.3719 2.25829L12.5066 2.67893C12.5241 2.73336 12.4613 2.7785 12.4142 2.74522L12.0511 2.48864L11.6879 2.74522C11.6409 2.77843 11.5782 2.73336 11.5956 2.67893L11.7303 2.25829L11.3712 1.99614C11.3247 1.96214 11.3487 1.88936 11.4065 1.88886L11.8529 1.8855L11.9941 1.46693C12.0122 1.41272 12.0898 1.41272 12.1081 1.46693Z" fill="#F5F5F5"/>
<path d="M12.1081 3.65633L12.2493 4.0749L12.6957 4.07826C12.7535 4.07876 12.7774 4.15162 12.731 4.18554L12.3719 4.44769L12.5066 4.86833C12.5241 4.92276 12.4613 4.9679 12.4142 4.93462L12.0511 4.67804L11.6879 4.93462C11.6409 4.96783 11.5782 4.92276 11.5956 4.86833L11.7303 4.44769L11.3712 4.18554C11.3247 4.15154 11.3487 4.07876 11.4065 4.07826L11.8529 4.0749L11.9941 3.65633C12.0122 3.60219 12.0898 3.60219 12.1081 3.65633Z" fill="#F5F5F5"/>
<path d="M12.1081 5.84627L12.2493 6.26484L12.6957 6.2682C12.7535 6.2687 12.7774 6.34156 12.731 6.37549L12.3719 6.63763L12.5066 7.05827C12.5241 7.1127 12.4613 7.15785 12.4142 7.12456L12.0511 6.86799L11.6879 7.12456C11.6409 7.15777 11.5782 7.1127 11.5956 7.05827L11.7303 6.63763L11.3712 6.37549C11.3247 6.34149 11.3487 6.2687 11.4065 6.2682L11.8529 6.26484L11.9941 5.84627C12.0122 5.79213 12.0898 5.79213 12.1081 5.84627Z" fill="#F5F5F5"/>
<path d="M12.1081 8.03578L12.2493 8.45435L12.6957 8.45771C12.7535 8.45821 12.7774 8.53106 12.731 8.56499L12.3719 8.82713L12.5066 9.24778C12.5241 9.30221 12.4613 9.34735 12.4142 9.31406L12.0511 9.05749L11.6879 9.31406C11.6409 9.34728 11.5782 9.30221 11.5956 9.24778L11.7303 8.82713L11.3712 8.56499C11.3247 8.53099 11.3487 8.45821 11.4065 8.45771L11.8529 8.45435L11.9941 8.03578C12.0122 7.98156 12.0898 7.98156 12.1081 8.03578Z" fill="#F5F5F5"/>
<path d="M12.1081 10.2253L12.2493 10.6439L12.6957 10.6472C12.7535 10.6477 12.7774 10.7206 12.731 10.7545L12.3719 11.0166L12.5066 11.4373C12.5241 11.4917 12.4613 11.5369 12.4142 11.5036L12.0511 11.247L11.6879 11.5036C11.6409 11.5368 11.5782 11.4917 11.5956 11.4373L11.7303 11.0166L11.3712 10.7545C11.3247 10.7205 11.3487 10.6477 11.4065 10.6472L11.8529 10.6439L11.9941 10.2253C12.0122 10.171 12.0898 10.171 12.1081 10.2253Z" fill="#F5F5F5"/>
<path d="M13.8273 2.54061L13.9685 2.95918L14.4149 2.96254C14.4727 2.96304 14.4967 3.03589 14.4502 3.06982L14.0911 3.33196L14.2258 3.75261C14.2433 3.80704 14.1805 3.85218 14.1334 3.81889L13.7703 3.56232L13.4072 3.81889C13.3601 3.85211 13.2975 3.80704 13.3148 3.75261L13.4495 3.33196L13.0904 3.06982C13.044 3.03582 13.0679 2.96304 13.1257 2.96254L13.5721 2.95918L13.7133 2.54061C13.7315 2.48646 13.8091 2.48646 13.8273 2.54061Z" fill="#F5F5F5"/>
<path d="M13.8273 4.73011L13.9685 5.14869L14.4149 5.15204C14.4727 5.15254 14.4967 5.2254 14.4502 5.25933L14.0911 5.52147L14.2258 5.94211C14.2433 5.99654 14.1805 6.04169 14.1334 6.0084L13.7703 5.75183L13.4072 6.0084C13.3601 6.04161 13.2975 5.99661 13.3148 5.94211L13.4495 5.52147L13.0904 5.25933C13.044 5.22533 13.0679 5.15254 13.1257 5.15204L13.5721 5.14869L13.7133 4.73011C13.7315 4.6759 13.8091 4.6759 13.8273 4.73011Z" fill="#F5F5F5"/>
<path d="M13.8273 6.91957L13.9685 7.33814L14.4149 7.3415C14.4727 7.342 14.4967 7.41485 14.4502 7.44878L14.0911 7.71092L14.2258 8.13157C14.2433 8.18599 14.1805 8.23114 14.1334 8.19785L13.7703 7.94128L13.4072 8.19785C13.3601 8.23107 13.2975 8.18599 13.3148 8.13157L13.4495 7.71092L13.0904 7.44878C13.044 7.41478 13.0679 7.342 13.1257 7.3415L13.5721 7.33814L13.7133 6.91957C13.7315 6.86535 13.8091 6.86535 13.8273 6.91957Z" fill="#F5F5F5"/>
<path d="M13.8273 9.10945L13.9685 9.52803L14.4149 9.53138C14.4727 9.53188 14.4967 9.60474 14.4502 9.63867L14.0911 9.90081L14.2258 10.3215C14.2433 10.3759 14.1805 10.421 14.1334 10.3877L13.7703 10.1312L13.4072 10.3877C13.3601 10.421 13.2975 10.3759 13.3148 10.3215L13.4495 9.90081L13.0904 9.63867C13.044 9.60467 13.0679 9.53188 13.1257 9.53138L13.5721 9.52803L13.7133 9.10945C13.7315 9.05531 13.8091 9.05531 13.8273 9.10945Z" fill="#F5F5F5"/>
<path d="M15.5471 1.46693L15.6883 1.8855L16.1347 1.88886C16.1925 1.88936 16.2164 1.96222 16.1699 1.99614L15.8108 2.25829L15.9455 2.67893C15.963 2.73336 15.9002 2.7785 15.8532 2.74522L15.49 2.48864L15.1269 2.74522C15.0799 2.77843 15.0172 2.73336 15.0346 2.67893L15.1693 2.25829L14.8102 1.99614C14.7637 1.96214 14.7876 1.88936 14.8454 1.88886L15.2918 1.8855L15.433 1.46693C15.4512 1.41272 15.5287 1.41272 15.5471 1.46693Z" fill="#F5F5F5"/>
<path d="M15.5471 3.65633L15.6883 4.0749L16.1347 4.07826C16.1925 4.07876 16.2164 4.15162 16.1699 4.18554L15.8108 4.44769L15.9455 4.86833C15.963 4.92276 15.9002 4.9679 15.8532 4.93462L15.49 4.67804L15.1269 4.93462C15.0799 4.96783 15.0172 4.92276 15.0346 4.86833L15.1693 4.44769L14.8102 4.18554C14.7637 4.15154 14.7876 4.07876 14.8454 4.07826L15.2918 4.0749L15.433 3.65633C15.4512 3.60219 15.5287 3.60219 15.5471 3.65633Z" fill="#F5F5F5"/>
<path d="M15.5471 5.84627L15.6883 6.26484L16.1347 6.2682C16.1925 6.2687 16.2164 6.34156 16.1699 6.37549L15.8108 6.63763L15.9455 7.05827C15.963 7.1127 15.9002 7.15785 15.8532 7.12456L15.49 6.86799L15.1269 7.12456C15.0799 7.15777 15.0172 7.1127 15.0346 7.05827L15.1693 6.63763L14.8102 6.37549C14.7637 6.34149 14.7876 6.2687 14.8454 6.2682L15.2918 6.26484L15.433 5.84627C15.4512 5.79213 15.5287 5.79213 15.5471 5.84627Z" fill="#F5F5F5"/>
<path d="M15.5471 8.03578L15.6883 8.45435L16.1347 8.45771C16.1925 8.45821 16.2164 8.53106 16.1699 8.56499L15.8108 8.82713L15.9455 9.24778C15.963 9.30221 15.9002 9.34735 15.8532 9.31406L15.49 9.05749L15.1269 9.31406C15.0799 9.34728 15.0172 9.30221 15.0346 9.24778L15.1693 8.82713L14.8102 8.56499C14.7637 8.53099 14.7876 8.45821 14.8454 8.45771L15.2918 8.45435L15.433 8.03578C15.4512 7.98156 15.5287 7.98156 15.5471 8.03578Z" fill="#F5F5F5"/>
<path d="M15.5471 10.2253L15.6883 10.6439L16.1347 10.6472C16.1925 10.6477 16.2164 10.7206 16.1699 10.7545L15.8108 11.0166L15.9455 11.4373C15.963 11.4917 15.9002 11.5369 15.8532 11.5036L15.49 11.247L15.1269 11.5036C15.0799 11.5368 15.0172 11.4917 15.0346 11.4373L15.1693 11.0166L14.8102 10.7545C14.7637 10.7205 14.7876 10.6477 14.8454 10.6472L15.2918 10.6439L15.433 10.2253C15.4512 10.171 15.5287 10.171 15.5471 10.2253Z" fill="#F5F5F5"/>
<path d="M36.362 23.9802H0.63796C0.285665 23.9802 0 23.6978 0 23.3496V0.650102C0 0.301888 0.285665 0.0195312 0.63796 0.0195312H36.362C36.7143 0.0195312 37 0.301888 37 0.650102V23.3496C36.9999 23.6979 36.7143 23.9802 36.362 23.9802Z" fill="#F5F5F5"/>
<path d="M36.9999 1.86275H0V0.650102C0 0.301888 0.285665 0.0195312 0.63796 0.0195312H36.362C36.7143 0.0195312 37 0.301888 37 0.650102L36.9999 1.86275Z" fill="#151415"/>
<path d="M36.9999 7.39209H0V9.23523H36.9999V7.39209Z" fill="#151415"/>
<path d="M36.9999 3.70557H0V5.54871H36.9999V3.70557Z" fill="#151415"/>
<path d="M36.9999 12.9213H0.63796C0.285665 12.9213 0 12.639 0 12.2908V11.0781H36.9999V12.9213Z" fill="#151415"/>
<path d="M36.9999 18.4512H0V20.2943H36.9999V18.4512Z" fill="#151415"/>
<path d="M36.362 23.9804H0.63796C0.285665 23.9804 0 23.698 0 23.3498V22.1372H36.9999V23.3499C36.9999 23.6981 36.7143 23.9804 36.362 23.9804Z" fill="#151415"/>
<path d="M36.9999 14.7646H0V16.6078H36.9999V14.7646Z" fill="#151415"/>
<path d="M16.5862 0.0200195H0.63796C0.285665 0.0200195 0 0.302305 0 0.650519V12.2912C0 12.6394 0.285665 12.9218 0.63796 12.9218H16.5862C16.9385 12.9218 17.2242 12.6394 17.2242 12.2912V0.650519C17.2241 0.302305 16.9385 0.0200195 16.5862 0.0200195Z" fill="#151415"/>
</svg>
