<svg width="36" height="24" viewBox="0 0 36 24" fill="none" xmlns="http://www.w3.org/2000/svg">
<rect width="36" height="24" fill="white"/>
<path d="M36 0.0258789H0V23.9794H36V0.0258789Z" fill="white"/>
<path d="M20.25 0.0253906H15.75V9.75634H0V14.2476H15.75V23.9785H20.25V14.2476H36V9.75634H20.25V0.0253906Z" fill="black"/>
<path d="M27.6875 16.1655L35.9995 20.7744V16.1655H27.6875Z" fill="black"/>
<path d="M21.9126 16.1655L35.9996 23.9763V21.7676L25.8962 16.1655H21.9126Z" fill="black"/>
<path d="M32.2473 23.9764L21.9126 18.2456V23.9764H32.2473Z" fill="black"/>
<path d="M21.9126 16.1655L35.9996 23.9763V21.7676L25.8962 16.1655H21.9126Z" fill="white"/>
<path d="M21.9126 16.1655L35.9996 23.9763V21.7676L25.8962 16.1655H21.9126Z" fill="black"/>
<path d="M6.3521 16.1655L0 19.6876V16.1655H6.3521Z" fill="black"/>
<path d="M14.0866 17.1587V23.9763H1.79199L14.0866 17.1587Z" fill="black"/>
<path d="M10.1034 16.1655L0 21.7676V23.9763L14.087 16.1655H10.1034Z" fill="black"/>
<path d="M8.31199 7.83443L0 3.22559V7.83443H8.31199Z" fill="black"/>
<path d="M14.087 7.83522L0 0.0244141V2.23312L10.1034 7.83522H14.087Z" fill="black"/>
<path d="M3.75244 0.0234375L14.0871 5.75425V0.0234375H3.75244Z" fill="black"/>
<path d="M14.087 7.8362L0 0.0253906V2.23409L10.1034 7.8362H14.087Z" fill="white"/>
<path d="M14.087 7.8362L0 0.0253906V2.23409L10.1034 7.8362H14.087Z" fill="black"/>
<path d="M29.6475 7.8346L35.9996 4.3125V7.8346H29.6475Z" fill="black"/>
<path d="M21.9126 6.84105V0.0234375H34.2072L21.9126 6.84105Z" fill="black"/>
<path d="M25.8962 7.83424L35.9996 2.23214V0.0234375L21.9126 7.83424H25.8962Z" fill="black"/>
</svg>
