<svg width="24" height="24" viewBox="0 0 24 24" fill="none" xmlns="http://www.w3.org/2000/svg">
<path d="M12 24C8.8174 24 5.76516 22.7357 3.51472 20.4853C1.26428 18.2348 0 15.1826 0 12V12C0 8.8174 1.26428 5.76516 3.51472 3.51472C5.76516 1.26428 8.8174 0 12 0V0C15.1826 0 18.2348 1.26428 20.4853 3.51472C22.7357 5.76516 24 8.8174 24 12V12C24 15.1826 22.7357 18.2348 20.4853 20.4853C18.2348 22.7357 15.1826 24 12 24V24Z" fill="#292929"/>
<path d="M8.15365 13.0989C8.19362 13.1194 8.23788 13.1302 8.28281 13.1303C8.32774 13.1304 8.37205 13.1198 8.41211 13.0995C8.45217 13.0791 8.48685 13.0496 8.51328 13.0133C8.53971 12.9769 8.55715 12.9348 8.56417 12.8905C8.60207 12.7515 8.69049 12.3852 8.72838 12.2589C8.76032 12.1803 8.76589 12.0935 8.74425 12.0115C8.72261 11.9295 8.67493 11.8567 8.60838 11.8041C8.23763 11.3515 8.04653 10.7782 8.07154 10.1936C8.06514 9.66683 8.16598 9.14423 8.36791 8.65763C8.56985 8.17103 8.86866 7.73059 9.24618 7.36311C9.6237 6.99564 10.072 6.7088 10.5639 6.52006C11.0558 6.33131 11.5809 6.24461 12.1073 6.2652C14.3115 6.2652 15.5179 7.61678 15.5179 9.4231C15.5179 11.7852 14.4694 13.781 12.9221 13.781C12.7233 13.7924 12.5247 13.7566 12.3424 13.6767C12.1601 13.5967 11.9993 13.4748 11.8731 13.3208C11.7469 13.1669 11.6588 12.9853 11.6161 12.7909C11.5734 12.5965 11.5772 12.3947 11.6273 12.202C11.8737 11.1663 12.3473 10.042 12.3473 9.29678C12.3712 9.1388 12.3604 8.97749 12.3156 8.82412C12.2707 8.67075 12.193 8.529 12.0878 8.40875C11.9826 8.2885 11.8524 8.19264 11.7063 8.12785C11.5603 8.06306 11.4018 8.03091 11.2421 8.03363C10.3642 8.03363 9.66312 8.93679 9.66312 10.1557C9.65724 10.6007 9.74548 11.042 9.92206 11.4505L8.86733 15.922C8.69443 16.9527 8.69443 18.005 8.86733 19.0357C8.87039 19.0573 8.87995 19.0774 8.89471 19.0934C8.90947 19.1094 8.92874 19.1206 8.94998 19.1253C8.97121 19.1301 8.99341 19.1284 9.01362 19.1203C9.03383 19.1121 9.05109 19.0981 9.06312 19.0799C9.71186 18.2794 10.2143 17.3708 10.5473 16.3957C10.6421 16.0357 11.1221 14.1473 11.1221 14.1473C11.3444 14.4704 11.6441 14.7328 11.9938 14.9104C12.3435 15.088 12.7321 15.1752 13.1242 15.1641C15.7579 15.1641 17.5452 12.7641 17.5452 9.54941C17.5452 7.11783 15.4863 4.85046 12.36 4.85046C8.46312 4.85046 6.49891 7.64204 6.49891 9.97257C6.47364 11.3747 7.00418 12.6315 8.15365 13.0989Z" fill="white"/>
</svg>
