<svg width="28" height="19" viewBox="0 0 28 19" fill="none" xmlns="http://www.w3.org/2000/svg">
<path d="M26.8108 2.97041C26.5003 1.80119 25.5854 0.88035 24.4237 0.56785C22.3181 0 13.875 0 13.875 0C13.875 0 5.43191 0 3.32628 0.56785C2.16462 0.880399 1.24971 1.80119 0.939191 2.97041C0.375 5.08968 0.375 9.51136 0.375 9.51136C0.375 9.51136 0.375 13.933 0.939191 16.0523C1.24971 17.2215 2.16462 18.104 3.32628 18.4165C5.43191 18.9844 13.875 18.9844 13.875 18.9844C13.875 18.9844 22.3181 18.9844 24.4237 18.4165C25.5854 18.104 26.5003 17.2215 26.8108 16.0523C27.375 13.933 27.375 9.51136 27.375 9.51136C27.375 9.51136 27.375 5.08968 26.8108 2.97041ZM11.1136 13.5259V5.49681L18.1704 9.51146L11.1136 13.5259Z" fill="currentBlock"/>
</svg>
