<svg width="29" height="26" viewBox="0 0 29 26" fill="none" xmlns="http://www.w3.org/2000/svg">
<path d="M20.5417 0C18.0767 0 15.7108 1.1475 14.1667 2.96083C12.6225 1.1475 10.2567 0 7.79167 0C3.42833 0 0 3.42833 0 7.79167C0 13.1467 4.81667 17.51 12.1125 24.14L14.1667 25.9958L16.2208 24.1258C23.5167 17.51 28.3333 13.1467 28.3333 7.79167C28.3333 3.42833 24.905 0 20.5417 0ZM14.3083 22.0292L14.1667 22.1708L14.025 22.0292C7.28167 15.9233 2.83333 11.8858 2.83333 7.79167C2.83333 4.95833 4.95833 2.83333 7.79167 2.83333C9.97333 2.83333 12.0983 4.23583 12.8492 6.17667H15.4983C16.235 4.23583 18.36 2.83333 20.5417 2.83333C23.375 2.83333 25.5 4.95833 25.5 7.79167C25.5 11.8858 21.0517 15.9233 14.3083 22.0292Z" fill="#FC5252"/>
</svg>
