<svg width="17" height="17" viewBox="0 0 17 17" fill="none" xmlns="http://www.w3.org/2000/svg">
<path d="M16.7659 14.6976L13.4559 11.3876C13.3065 11.2382 13.104 11.1552 12.8915 11.1552H12.3504C13.2667 9.9832 13.8112 8.50913 13.8112 6.90558C13.8112 3.09091 10.7202 0 6.90558 0C3.09091 0 0 3.09091 0 6.90558C0 10.7202 3.09091 13.8112 6.90558 13.8112C8.50913 13.8112 9.9832 13.2667 11.1552 12.3504V12.8915C11.1552 13.104 11.2382 13.3065 11.3876 13.4559L14.6976 16.7659C15.0097 17.078 15.5143 17.078 15.8231 16.7659L16.7626 15.8264C17.0747 15.5143 17.0747 15.0097 16.7659 14.6976ZM6.90558 11.1552C4.55834 11.1552 2.65599 9.25613 2.65599 6.90558C2.65599 4.55834 4.55502 2.65599 6.90558 2.65599C9.25281 2.65599 11.1552 4.55502 11.1552 6.90558C11.1552 9.25281 9.25613 11.1552 6.90558 11.1552Z" fill="black"/>
</svg>
