<svg width="14" height="15" viewBox="0 0 14 15" fill="none" xmlns="http://www.w3.org/2000/svg">
<path id="Vector" d="M4.33324 6.83334C4.20139 6.83334 4.0725 6.87244 3.96286 6.9457C3.85323 7.01895 3.76778 7.12307 3.71732 7.24489C3.66687 7.36671 3.65366 7.50075 3.67939 7.63007C3.70511 7.75939 3.7686 7.87818 3.86184 7.97141C3.95507 8.06465 4.07386 8.12814 4.20318 8.15387C4.3325 8.17959 4.46655 8.16639 4.58837 8.11593C4.71018 8.06547 4.8143 7.98002 4.88756 7.87039C4.96081 7.76076 4.99991 7.63186 4.99991 7.50001C4.99991 7.3232 4.92967 7.15363 4.80465 7.02861C4.67962 6.90358 4.51006 6.83334 4.33324 6.83334ZM6.99991 6.83334C6.86806 6.83334 6.73916 6.87244 6.62953 6.9457C6.5199 7.01895 6.43445 7.12307 6.38399 7.24489C6.33353 7.36671 6.32033 7.50075 6.34605 7.63007C6.37178 7.75939 6.43527 7.87818 6.52851 7.97141C6.62174 8.06465 6.74053 8.12814 6.86985 8.15387C6.99917 8.17959 7.13322 8.16639 7.25503 8.11593C7.37685 8.06547 7.48097 7.98002 7.55422 7.87039C7.62748 7.76076 7.66658 7.63186 7.66658 7.50001C7.66658 7.3232 7.59634 7.15363 7.47132 7.02861C7.34629 6.90358 7.17672 6.83334 6.99991 6.83334ZM9.66658 6.83334C9.53472 6.83334 9.40583 6.87244 9.2962 6.9457C9.18656 7.01895 9.10112 7.12307 9.05066 7.24489C9.0002 7.36671 8.987 7.50075 9.01272 7.63007C9.03844 7.75939 9.10194 7.87818 9.19517 7.97141C9.28841 8.06465 9.4072 8.12814 9.53652 8.15387C9.66584 8.17959 9.79988 8.16639 9.9217 8.11593C10.0435 8.06547 10.1476 7.98002 10.2209 7.87039C10.2941 7.76076 10.3332 7.63186 10.3332 7.50001C10.3332 7.3232 10.263 7.15363 10.138 7.02861C10.013 6.90358 9.84339 6.83334 9.66658 6.83334ZM6.99991 0.833344C6.12443 0.833344 5.25752 1.00578 4.44869 1.34081C3.63985 1.67584 2.90492 2.16691 2.28587 2.78596C1.03562 4.03621 0.333244 5.7319 0.333244 7.50001C0.327416 9.03943 0.860439 10.5324 1.83991 11.72L0.506577 13.0533C0.414072 13.1471 0.351408 13.2661 0.326492 13.3955C0.301576 13.5248 0.315524 13.6586 0.366577 13.78C0.421949 13.9 0.511713 14.0008 0.624475 14.0696C0.737237 14.1384 0.867911 14.1722 0.999911 14.1667H6.99991C8.76802 14.1667 10.4637 13.4643 11.714 12.2141C12.9642 10.9638 13.6666 9.26812 13.6666 7.50001C13.6666 5.7319 12.9642 4.03621 11.714 2.78596C10.4637 1.53572 8.76802 0.833344 6.99991 0.833344ZM6.99991 12.8333H2.60658L3.22658 12.2133C3.28957 12.1516 3.33968 12.078 3.37401 11.9967C3.40834 11.9155 3.42621 11.8282 3.42658 11.74C3.42407 11.5642 3.35219 11.3964 3.22658 11.2733C2.35363 10.4014 1.81003 9.2537 1.68837 8.02587C1.56672 6.79804 1.87454 5.56601 2.5594 4.53969C3.24425 3.51337 4.26377 2.75625 5.44425 2.39733C6.62474 2.0384 7.89315 2.09988 9.03339 2.57129C10.1736 3.04269 11.1151 3.89486 11.6975 4.9826C12.2799 6.07035 12.4672 7.32637 12.2273 8.53668C11.9875 9.74699 11.3354 10.8367 10.3823 11.6202C9.42909 12.4036 8.23375 12.8324 6.99991 12.8333Z" fill="white"/>
</svg>
