<svg width="24" height="24" viewBox="0 0 24 24" fill="none" xmlns="http://www.w3.org/2000/svg">
<path d="M12 24C8.8174 24 5.76516 22.7357 3.51472 20.4853C1.26428 18.2348 0 15.1826 0 12C0 8.8174 1.26428 5.76515 3.51472 3.51471C5.76516 1.26427 8.8174 0 12 0C15.1826 0 18.2348 1.26427 20.4853 3.51471C22.7357 5.76515 24 8.8174 24 12C24 15.1826 22.7357 18.2348 20.4853 20.4853C18.2348 22.7357 15.1826 24 12 24Z" fill="#292929"/>
<path d="M11.9999 6.5874C13.7557 6.5874 13.9641 6.58739 14.6589 6.62529C15.077 6.63294 15.4911 6.70977 15.8841 6.85266C16.1703 6.95832 16.4293 7.12664 16.642 7.34529C16.8614 7.55749 17.0298 7.8166 17.1347 8.10318C17.2776 8.49626 17.3544 8.91028 17.362 9.32845C17.362 10.0232 17.3999 10.2316 17.3999 11.9937C17.3999 13.7558 17.3999 13.9579 17.362 14.6527C17.3544 15.0708 17.2776 15.4849 17.1347 15.8779C17.0298 16.1645 16.8614 16.4236 16.642 16.6358C16.4293 16.8545 16.1703 17.0228 15.8841 17.1284C15.4911 17.2713 15.077 17.3482 14.6589 17.3558C13.9641 17.3874 13.7557 17.3937 11.9999 17.3937C10.2441 17.3937 10.0294 17.3937 9.33467 17.3558C8.9165 17.3482 8.50248 17.2713 8.10941 17.1284C7.82477 17.0197 7.56645 16.8518 7.35151 16.6358C7.13416 16.422 6.96604 16.1634 6.85888 15.8779C6.716 15.4849 6.63917 15.0708 6.63151 14.6527C6.63151 13.9579 6.59362 13.7495 6.59362 11.9937C6.59362 10.2379 6.59362 10.0232 6.63151 9.32845C6.63917 8.91028 6.716 8.49626 6.85888 8.10318C6.96604 7.81774 7.13416 7.5591 7.35151 7.34529C7.56645 7.12931 7.82477 6.96141 8.10941 6.85266C8.50248 6.70977 8.9165 6.63294 9.33467 6.62529C10.0294 6.62529 10.2378 6.5874 11.9999 6.5874ZM11.9999 5.40002C10.2063 5.40002 9.9852 5.40002 9.27783 5.43792C8.73145 5.44924 8.19104 5.55391 7.67994 5.74739C7.24085 5.91377 6.84245 6.17218 6.51151 6.50529C6.17701 6.83509 5.91839 7.23381 5.75362 7.67371C5.56258 8.1855 5.45799 8.7255 5.44414 9.27161C5.41256 9.97897 5.40625 10.2 5.40625 11.9937C5.40625 13.7874 5.40625 14.0084 5.44414 14.7095C5.45799 15.2556 5.56258 15.7956 5.75362 16.3074C5.92158 16.7369 6.17663 17.1269 6.50271 17.453C6.8288 17.7791 7.21887 18.0342 7.64836 18.2021C8.15945 18.3956 8.69987 18.5003 9.24625 18.5116C9.95362 18.5432 10.1747 18.5495 11.9684 18.5495C13.762 18.5495 13.9831 18.5495 14.6841 18.5116C15.2306 18.5009 15.7711 18.3962 16.282 18.2021C16.7115 18.0342 17.1016 17.7791 17.4277 17.453C17.7538 17.1269 18.0088 16.7369 18.1768 16.3074C18.3709 15.7965 18.4755 15.2559 18.4862 14.7095C18.5178 14.0084 18.5241 13.7811 18.5241 11.9937C18.5241 10.2063 18.5241 9.97897 18.4862 9.27161C18.4755 8.72516 18.3709 8.18464 18.1768 7.67371C18.0142 7.23269 17.7553 6.83351 17.4189 6.50529C17.0891 6.17079 16.6904 5.91216 16.2505 5.74739C15.7395 5.55331 15.199 5.44862 14.6526 5.43792C13.9515 5.43792 13.7241 5.40002 11.9368 5.40002" fill="white"/>
<path d="M12 8.59571C11.3302 8.59446 10.675 8.79195 10.1175 9.16316C9.55998 9.53438 9.1251 10.0626 8.86791 10.6811C8.61072 11.2996 8.54277 11.9804 8.67268 12.6375C8.80258 13.2946 9.1245 13.8984 9.59769 14.3725C10.0709 14.8465 10.6741 15.1696 11.3309 15.3007C11.9878 15.4319 12.6687 15.3652 13.2877 15.1092C13.9066 14.8531 14.4357 14.4192 14.808 13.8624C15.1802 13.3055 15.3789 12.6508 15.3789 11.981C15.3789 11.0842 15.0231 10.2241 14.3896 9.58946C13.7561 8.95478 12.8967 8.59738 12 8.59571ZM12 14.1726C11.5647 14.1738 11.1389 14.0458 10.7765 13.8048C10.4141 13.5638 10.1314 13.2206 9.96429 12.8187C9.79716 12.4168 9.7531 11.9744 9.8377 11.5474C9.92231 11.1205 10.1318 10.7283 10.4395 10.4205C10.7473 10.1128 11.1395 9.9033 11.5664 9.8187C11.9934 9.73409 12.4358 9.77816 12.8377 9.94529C13.2396 10.1124 13.5828 10.3951 13.8238 10.7575C14.0648 11.1199 14.1928 11.5457 14.1916 11.981C14.1916 12.2688 14.1349 12.5538 14.0247 12.8197C13.9146 13.0855 13.7532 13.3272 13.5497 13.5307C13.3462 13.7342 13.1046 13.8956 12.8387 14.0057C12.5728 14.1159 12.2878 14.1726 12 14.1726Z" fill="white"/>
<path d="M16.3201 8.48209C16.3201 8.63975 16.2733 8.79386 16.1855 8.92486C16.0978 9.05586 15.9731 9.15784 15.8274 9.21788C15.6816 9.27793 15.5212 9.29331 15.3667 9.26209C15.2122 9.23087 15.0704 9.15445 14.9594 9.04253C14.8483 8.9306 14.773 8.78821 14.743 8.63343C14.7131 8.47865 14.7297 8.31845 14.7909 8.17315C14.8521 8.02786 14.9551 7.90401 15.0868 7.81733C15.2185 7.73065 15.373 7.68505 15.5306 7.6863C15.6348 7.6863 15.738 7.70693 15.8342 7.747C15.9304 7.78707 16.0177 7.84578 16.0911 7.91976C16.1645 7.99374 16.2225 8.08152 16.2618 8.17803C16.3011 8.27454 16.3209 8.37788 16.3201 8.48209Z" fill="white"/>
</svg>
