<svg width="14" height="18" viewBox="0 0 16 20" fill="none" xmlns="http://www.w3.org/2000/svg">
<path d="M6.76279 17.6368C1.80945 10.2316 0.890015 9.47155 0.890015 6.75C0.890015 3.02207 3.8205 0 7.43547 0C11.0504 0 13.9809 3.02207 13.9809 6.75C13.9809 9.47155 13.0615 10.2316 8.10815 17.6368C7.78309 18.1211 7.08781 18.121 6.76279 17.6368ZM7.43547 9.5625C8.94171 9.5625 10.1627 8.30331 10.1627 6.75C10.1627 5.19669 8.94171 3.9375 7.43547 3.9375C5.92923 3.9375 4.7082 5.19669 4.7082 6.75C4.7082 8.30331 5.92923 9.5625 7.43547 9.5625Z" fill="black"/>
</svg>
