<svg width="16" height="17" viewBox="0 0 16 17" fill="none" xmlns="http://www.w3.org/2000/svg">
<path d="M10.857 4.90421C10.3892 2.02299 9.28574 0 8.00161 0C6.71748 0 5.61404 2.02299 5.1462 4.90421H10.857ZM4.90421 8.00161C4.90421 8.71789 4.94293 9.40512 5.01069 10.0665H10.9893C11.0571 9.40512 11.0958 8.71789 11.0958 8.00161C11.0958 7.28534 11.0571 6.5981 10.9893 5.93668H5.01069C4.94293 6.5981 4.90421 7.28534 4.90421 8.00161ZM15.3805 4.90421C14.4578 2.71345 12.5896 1.01956 10.2827 0.335552C11.07 1.42609 11.612 3.06836 11.8959 4.90421H15.3805ZM5.71728 0.335552C3.41359 1.01956 1.54225 2.71345 0.622706 4.90421H4.10728C4.38798 3.06836 4.93003 1.42609 5.71728 0.335552ZM15.7258 5.93668H12.025C12.0928 6.61424 12.1315 7.30793 12.1315 8.00161C12.1315 8.6953 12.0928 9.38899 12.025 10.0665H15.7225C15.9 9.40512 16 8.71789 16 8.00161C16 7.28534 15.9 6.5981 15.7258 5.93668ZM3.87175 8.00161C3.87175 7.30793 3.91047 6.61424 3.97822 5.93668H0.277475C0.103247 6.5981 0 7.28534 0 8.00161C0 8.71789 0.103247 9.40512 0.277475 10.0665H3.975C3.91047 9.38899 3.87175 8.6953 3.87175 8.00161ZM5.1462 11.099C5.61404 13.9802 6.71748 16.0032 8.00161 16.0032C9.28574 16.0032 10.3892 13.9802 10.857 11.099H5.1462ZM10.2859 15.6677C12.5896 14.9837 14.461 13.2898 15.3837 11.099H11.8992C11.6152 12.9349 11.0732 14.5771 10.2859 15.6677ZM0.622706 11.099C1.54547 13.2898 3.41359 14.9837 5.72051 15.6677C4.93325 14.5771 4.39121 12.9349 4.10728 11.099H0.622706Z" fill="black"/>
</svg>
