<svg width="16" height="10" viewBox="0 0 16 10" fill="none" xmlns="http://www.w3.org/2000/svg">
<mask id="path-1-inside-1_5288_2883" fill="white">
<path d="M11.1378 9.47133C11.0121 9.59277 10.8437 9.65997 10.6689 9.65845C10.4941 9.65693 10.3269 9.58681 10.2033 9.46321C10.0797 9.3396 10.0096 9.1724 10.0081 8.9976C10.0065 8.8228 10.0737 8.6544 10.1952 8.52866L13.0572 5.66666H1.33317C1.15636 5.66666 0.98679 5.59643 0.861766 5.4714C0.736742 5.34638 0.666504 5.17681 0.666504 5C0.666504 4.82319 0.736742 4.65362 0.861766 4.52859C0.98679 4.40357 1.15636 4.33333 1.33317 4.33333H13.0572L10.1952 1.47133C10.0737 1.3456 10.0065 1.17719 10.0081 1.0024C10.0096 0.827598 10.0797 0.66039 10.2033 0.536785C10.3269 0.413179 10.4941 0.343066 10.6689 0.341547C10.8437 0.340028 11.0121 0.407225 11.1378 0.528664L15.1378 4.52866C15.2628 4.65368 15.333 4.82322 15.333 5C15.333 5.17677 15.2628 5.34631 15.1378 5.47133L11.1378 9.47133Z"/>
</mask>
<path d="M11.1378 9.47133C11.0121 9.59277 10.8437 9.65997 10.6689 9.65845C10.4941 9.65693 10.3269 9.58681 10.2033 9.46321C10.0797 9.3396 10.0096 9.1724 10.0081 8.9976C10.0065 8.8228 10.0737 8.6544 10.1952 8.52866L13.0572 5.66666H1.33317C1.15636 5.66666 0.98679 5.59643 0.861766 5.4714C0.736742 5.34638 0.666504 5.17681 0.666504 5C0.666504 4.82319 0.736742 4.65362 0.861766 4.52859C0.98679 4.40357 1.15636 4.33333 1.33317 4.33333H13.0572L10.1952 1.47133C10.0737 1.3456 10.0065 1.17719 10.0081 1.0024C10.0096 0.827598 10.0797 0.66039 10.2033 0.536785C10.3269 0.413179 10.4941 0.343066 10.6689 0.341547C10.8437 0.340028 11.0121 0.407225 11.1378 0.528664L15.1378 4.52866C15.2628 4.65368 15.333 4.82322 15.333 5C15.333 5.17677 15.2628 5.34631 15.1378 5.47133L11.1378 9.47133Z" fill="black"/>
<path d="M11.1378 9.47133L12.1799 10.5503L12.1893 10.5412L12.1985 10.532L11.1378 9.47133ZM10.1952 8.52866L9.13451 7.468L9.12529 7.47722L9.11624 7.4866L10.1952 8.52866ZM13.0572 5.66666L14.1178 6.72732L16.6785 4.16666H13.0572V5.66666ZM0.666504 5H-0.833496H0.666504ZM13.0572 4.33333V5.83333H16.6785L14.1178 3.27267L13.0572 4.33333ZM10.1952 1.47133L9.11624 2.5134L9.12529 2.52277L9.13451 2.53199L10.1952 1.47133ZM11.1378 0.528664L12.1985 -0.531996L12.1893 -0.541213L12.1799 -0.550269L11.1378 0.528664ZM15.1378 4.52866L16.1987 3.46816L16.1985 3.468L15.1378 4.52866ZM15.1378 5.47133L16.1985 6.53199L16.1987 6.53183L15.1378 5.47133ZM10.0958 8.3924C10.2529 8.2406 10.4634 8.1566 10.6819 8.1585L10.6559 11.1584C11.224 11.1633 11.7713 10.9449 12.1799 10.5503L10.0958 8.3924ZM10.6819 8.1585C10.9004 8.1604 11.1094 8.24804 11.264 8.40255L9.14263 10.5239C9.54435 10.9256 10.0878 11.1535 10.6559 11.1584L10.6819 8.1585ZM11.264 8.40255C11.4185 8.55706 11.5061 8.76607 11.508 8.98456L8.50811 9.01063C8.51305 9.57872 8.74091 10.1222 9.14263 10.5239L11.264 8.40255ZM11.508 8.98456C11.5099 9.20306 11.4259 9.41356 11.2741 9.57073L9.11624 7.4866C8.72156 7.89523 8.50317 8.44254 8.50811 9.01063L11.508 8.98456ZM11.2558 9.58932L14.1178 6.72732L11.9965 4.606L9.13451 7.468L11.2558 9.58932ZM13.0572 4.16666H1.33317V7.16666H13.0572V4.16666ZM1.33317 4.16666C1.55418 4.16666 1.76615 4.25446 1.92243 4.41074L-0.198894 6.53206C0.207434 6.93839 0.758534 7.16666 1.33317 7.16666V4.16666ZM1.92243 4.41074C2.07871 4.56702 2.1665 4.77898 2.1665 5H-0.833496C-0.833496 5.57463 -0.605223 6.12573 -0.198894 6.53206L1.92243 4.41074ZM2.1665 5C2.1665 5.22101 2.07871 5.43297 1.92243 5.58925L-0.198894 3.46793C-0.605223 3.87426 -0.833496 4.42536 -0.833496 5H2.1665ZM1.92243 5.58925C1.76615 5.74553 1.55418 5.83333 1.33317 5.83333V2.83333C0.758534 2.83333 0.207434 3.0616 -0.198894 3.46793L1.92243 5.58925ZM1.33317 5.83333H13.0572V2.83333H1.33317V5.83333ZM14.1178 3.27267L11.2558 0.41067L9.13451 2.53199L11.9965 5.39399L14.1178 3.27267ZM11.2741 0.429262C11.4259 0.586431 11.5099 0.796933 11.508 1.01543L8.50811 0.989362C8.50317 1.55745 8.72156 2.10476 9.11624 2.5134L11.2741 0.429262ZM11.508 1.01543C11.5061 1.23393 11.4185 1.44294 11.264 1.59744L9.14263 -0.523876C8.74091 -0.122158 8.51305 0.421269 8.50811 0.989362L11.508 1.01543ZM11.264 1.59744C11.1094 1.75195 10.9004 1.83959 10.6819 1.84149L10.6559 -1.1584C10.0878 -1.15346 9.54435 -0.925593 9.14263 -0.523876L11.264 1.59744ZM10.6819 1.84149C10.4634 1.84339 10.2529 1.75939 10.0958 1.6076L12.1799 -0.550269C11.7713 -0.944944 11.224 -1.16333 10.6559 -1.1584L10.6819 1.84149ZM10.0772 1.58932L14.0772 5.58932L16.1985 3.468L12.1985 -0.531996L10.0772 1.58932ZM14.077 5.58916C13.9208 5.43289 13.833 5.22096 13.833 5H16.833C16.833 4.42548 16.6048 3.87448 16.1987 3.46816L14.077 5.58916ZM13.833 5C13.833 4.77903 13.9208 4.56711 14.077 4.41083L16.1987 6.53183C16.6048 6.12552 16.833 5.57452 16.833 5H13.833ZM14.0772 4.41067L10.0772 8.41067L12.1985 10.532L16.1985 6.53199L14.0772 4.41067Z" fill="#353535" mask="url(#path-1-inside-1_5288_2883)"/>
</svg>
