<svg width="130" height="39" viewBox="0 0 130 39" fill="none" xmlns="http://www.w3.org/2000/svg">
<path d="M86.6094 0H60.2324V12.6543H86.6094V0Z" fill="#FFC900"/>
<path d="M130 0H89.3213V12.6543H130V0Z" fill="#FFC900"/>
<path d="M57.5216 0H41.4404V12.6543H57.5216V0Z" fill="#FFC900"/>
<path d="M38.7282 0H31.7988V12.6543H38.7282V0Z" fill="#FFC900"/>
<path d="M2.71127 12.644H0V37.9324H2.71127V12.644Z" fill="#1D1D1B"/>
<path d="M60.2328 20.4858H57.5215V37.9378H60.2328V20.4858Z" fill="#1D1D1B"/>
<path d="M89.3206 20.4858H86.6094V37.9378H89.3206V20.4858Z" fill="#1D1D1B"/>
<path d="M19.6699 33.679H19.5993C17.911 37.2722 16.8124 38.3356 13.3352 38.3356C10.4374 38.3356 9.15234 35.2161 9.15234 32.9432V20.4805H11.8686V31.769C11.8686 33.6438 12.6397 36.098 14.9831 36.098C18.1731 36.098 19.5993 31.3256 19.5993 27.9591V20.4805H22.3106V37.9324H19.6699V33.679Z" fill="#1D1D1B"/>
<path d="M29.0889 20.4803H31.7245V24.769H31.8001C32.7224 22.5667 34.2191 20.0771 37.263 20.0771C40.3069 20.0771 41.4408 22.7128 41.4408 24.6581H41.5113C41.9548 23.4486 43.5271 20.0771 46.8633 20.0771C49.6854 20.0771 51.0764 22.1282 51.0764 24.9907V37.9272H48.3651V26.2052C48.3651 24.8446 48.3651 22.3197 45.9108 22.3197C42.7964 22.3197 41.4408 27.2283 41.4408 30.0806V37.9322H38.7295V26.6386C38.7295 24.774 38.7295 22.3197 36.3105 22.3197C33.1961 22.3197 31.8001 27.0821 31.8001 30.4485V37.9322H29.0889V20.4803Z" fill="#1D1D1B"/>
<path d="M67.0107 20.4803H69.6515V24.769H69.722C70.7854 22.5667 72.5442 20.0771 75.9912 20.0771C79.0149 20.0771 80.1639 22.7128 80.1639 24.6581V37.9272H77.4577V26.6386C77.4577 24.774 77.4577 22.3197 75.0387 22.3197C71.3699 22.3197 69.722 27.0821 69.722 30.4485V37.9322H67.0107V20.4803Z" fill="#1D1D1B"/>
</svg>
