<svg width="24" height="16" xmlns="http://www.w3.org/2000/svg">

 <g>
  <title>background</title>
  <rect fill="none" id="canvas_background" height="602" width="802" y="-1" x="-1"/>
 </g>
 <g>
  <title>Layer 1</title>
  <path id="svg_1" fill="currentColor" d="m23.7231,6.65128c-2.3494,-3.98674 -6.731,-6.65128 -11.7231,-6.65128c-4.99416,0 -9.37482,2.66641 -11.72306,6.65128c-0.18132,0.30767 -0.27694,0.65827 -0.27694,1.01539c0,0.35712 0.09562,0.70773 0.27694,1.0154c2.34937,3.98673 6.73099,6.65123 11.72306,6.65123c4.9942,0 9.3748,-2.6664 11.7231,-6.65127c0.1813,-0.30766 0.2769,-0.65826 0.2769,-1.01538c0,-0.35711 -0.0956,-0.70771 -0.2769,-1.01537zm-11.7231,6.68202c-3.13174,0 -5.66666,-2.5344 -5.66666,-5.66665c0,-3.13174 2.53441,-5.66665 5.66666,-5.66665c3.1317,0 5.6667,2.53441 5.6667,5.66665c0,3.13175 -2.5345,5.66665 -5.6667,5.66665z"/>
  <line stroke-linecap="undefined" stroke-linejoin="undefined" id="svg_3" y2="1.1875" x2="22.5625" y1="14.8125" x1="1.3125" stroke-width="1.5" stroke="#000" fill="none"/>
 </g>
</svg>