<svg width="24" height="16" viewBox="0 0 24 16" fill="none" xmlns="http://www.w3.org/2000/svg">
<path d="M23.7231 6.65128C21.3737 2.66454 16.9921 0 12 0C7.00584 0 2.62518 2.66641 0.276936 6.65128C0.0956233 6.95895 0 7.30955 0 7.66667C0 8.02379 0.0956233 8.3744 0.276936 8.68207C2.62631 12.6688 7.00793 15.3333 12 15.3333C16.9942 15.3333 21.3748 12.6669 23.7231 8.68203C23.9044 8.37437 24 8.02377 24 7.66665C24 7.30954 23.9044 6.95894 23.7231 6.65128ZM12 13.3333C8.86826 13.3333 6.33334 10.7989 6.33334 7.66665C6.33334 4.53491 8.86775 2 12 2C15.1317 2 17.6667 4.53441 17.6667 7.66665C17.6667 10.7984 15.1322 13.3333 12 13.3333Z" fill="currentColor"/>
</svg>
