<svg width="16" height="14" viewBox="0 0 16 14" fill="none" xmlns="http://www.w3.org/2000/svg">
<path d="M15.5 10.7755H5V10.2857C5 10.0163 4.775 9.79592 4.5 9.79592H3.5C3.225 9.79592 3 10.0163 3 10.2857V10.7755H0.5C0.225 10.7755 0 10.9959 0 11.2653V12.2449C0 12.5143 0.225 12.7347 0.5 12.7347H3V13.2245C3 13.4939 3.225 13.7143 3.5 13.7143H4.5C4.775 13.7143 5 13.4939 5 13.2245V12.7347H15.5C15.775 12.7347 16 12.5143 16 12.2449V11.2653C16 10.9959 15.775 10.7755 15.5 10.7755ZM15.5 5.87755H13V5.38776C13 5.11837 12.775 4.89796 12.5 4.89796H11.5C11.225 4.89796 11 5.11837 11 5.38776V5.87755H0.5C0.225 5.87755 0 6.09796 0 6.36735V7.34694C0 7.61633 0.225 7.83673 0.5 7.83673H11V8.32653C11 8.59592 11.225 8.81633 11.5 8.81633H12.5C12.775 8.81633 13 8.59592 13 8.32653V7.83673H15.5C15.775 7.83673 16 7.61633 16 7.34694V6.36735C16 6.09796 15.775 5.87755 15.5 5.87755ZM15.5 0.979592H9V0.489796C9 0.220408 8.775 0 8.5 0H7.5C7.225 0 7 0.220408 7 0.489796V0.979592H0.5C0.225 0.979592 0 1.2 0 1.46939V2.44898C0 2.71837 0.225 2.93878 0.5 2.93878H7V3.42857C7 3.69796 7.225 3.91837 7.5 3.91837H8.5C8.775 3.91837 9 3.69796 9 3.42857V2.93878H15.5C15.775 2.93878 16 2.71837 16 2.44898V1.46939C16 1.2 15.775 0.979592 15.5 0.979592Z" fill="#111111"/>
</svg>
