<svg width="20" height="20" viewBox="0 0 20 20" fill="none" xmlns="http://www.w3.org/2000/svg">
<path d="M0.726549 0.96134L4.78897 0.0238594C5.23036 -0.0777009 5.68348 0.152763 5.86316 0.566817L7.73812 4.94172C7.90218 5.32453 7.79281 5.77374 7.4686 6.03545L5.10146 7.97291C6.50768 10.9689 8.96466 13.4611 12.0232 14.8946L13.9607 12.5275C14.2263 12.2033 14.6716 12.0939 15.0544 12.258L19.4293 14.1329C19.8473 14.3165 20.0777 14.7696 19.9762 15.211L19.0387 19.2735C18.941 19.6953 18.566 20 18.1246 20C8.12093 20 0 11.8947 0 1.87538C0 1.43789 0.300777 1.05899 0.726549 0.96134Z" fill="#FFC900"/>
</svg>
