<svg width="18" height="21" viewBox="0 0 18 21" fill="none" xmlns="http://www.w3.org/2000/svg">
<mask id="path-1-inside-1_4461_5683" fill="white">
<path d="M18 14.307V15.4783L12.1969 21L6.39331 15.4783V14.307L11.7614 19.4143V10.1992H12.6319V19.4143L18 14.307ZM0 6.69302V5.52172L5.80314 0L11.6063 5.52172V6.69302L6.23814 1.58572V10.8008H5.36805V1.58572L0 6.69302Z"/>
</mask>
<path d="M18 14.307V15.4783L12.1969 21L6.39331 15.4783V14.307L11.7614 19.4143V10.1992H12.6319V19.4143L18 14.307ZM0 6.69302V5.52172L5.80314 0L11.6063 5.52172V6.69302L6.23814 1.58572V10.8008H5.36805V1.58572L0 6.69302Z" fill="black"/>
<path d="M18 14.307H19V11.9753L17.3107 13.5825L18 14.307ZM18 15.4783L18.6893 16.2027L19 15.9071V15.4783H18ZM12.1969 21L11.5076 21.7245L12.1969 22.3803L12.8862 21.7245L12.1969 21ZM6.39331 15.4783H5.39331V15.9071L5.70401 16.2028L6.39331 15.4783ZM6.39331 14.307L7.0826 13.5825L5.39331 11.9753V14.307H6.39331ZM11.7614 19.4143L11.0722 20.1388L12.7614 21.746V19.4143H11.7614ZM11.7614 10.1992V9.19921H10.7614V10.1992H11.7614ZM12.6319 10.1992H13.6319V9.19921H12.6319V10.1992ZM12.6319 19.4143H11.6319V21.746L13.3212 20.1388L12.6319 19.4143ZM0 6.69302H-1V9.02474L0.689292 7.4175L0 6.69302ZM0 5.52172L-0.689323 4.79727L-1 5.09288V5.52172H0ZM5.80314 0L6.49246 -0.724454L5.80314 -1.38035L5.11381 -0.724454L5.80314 0ZM11.6063 5.52172H12.6063V5.09288L12.2956 4.79727L11.6063 5.52172ZM11.6063 6.69302L10.917 7.41751L12.6063 9.02471V6.69302H11.6063ZM6.23814 1.58572L6.92743 0.861232L5.23814 -0.745973V1.58572H6.23814ZM6.23814 10.8008V11.8008H7.23814V10.8008H6.23814ZM5.36805 10.8008H4.36805V11.8008H5.36805V10.8008ZM5.36805 1.58572H6.36805V-0.745998L4.67876 0.861237L5.36805 1.58572ZM17 14.307V15.4783H19V14.307H17ZM17.3107 14.7538L11.5075 20.2755L12.8862 21.7245L18.6893 16.2027L17.3107 14.7538ZM12.8862 20.2755L7.08261 14.7538L5.70401 16.2028L11.5076 21.7245L12.8862 20.2755ZM7.39331 15.4783V14.307H5.39331V15.4783H7.39331ZM5.70402 15.0315L11.0722 20.1388L12.4507 18.6898L7.0826 13.5825L5.70402 15.0315ZM12.7614 19.4143V10.1992H10.7614V19.4143H12.7614ZM11.7614 11.1992H12.6319V9.19921H11.7614V11.1992ZM11.6319 10.1992V19.4143H13.6319V10.1992H11.6319ZM13.3212 20.1388L18.6893 15.0315L17.3107 13.5825L11.9426 18.6898L13.3212 20.1388ZM1 6.69302V5.52172H-1V6.69302H1ZM0.689323 6.24618L6.49246 0.724454L5.11381 -0.724454L-0.689323 4.79727L0.689323 6.24618ZM5.11381 0.724454L10.917 6.24618L12.2956 4.79727L6.49246 -0.724454L5.11381 0.724454ZM10.6063 5.52172V6.69302H12.6063V5.52172H10.6063ZM12.2956 5.96853L6.92743 0.861232L5.54885 2.31021L10.917 7.41751L12.2956 5.96853ZM5.23814 1.58572V10.8008H7.23814V1.58572H5.23814ZM6.23814 9.80079H5.36805V11.8008H6.23814V9.80079ZM6.36805 10.8008V1.58572H4.36805V10.8008H6.36805ZM4.67876 0.861237L-0.689292 5.96854L0.689292 7.4175L6.05734 2.3102L4.67876 0.861237Z" fill="#292929" mask="url(#path-1-inside-1_4461_5683)"/>
</svg>
