<svg width="842" height="240" viewBox="0 0 842 240" fill="none" xmlns="http://www.w3.org/2000/svg">
<g clip-path="url(#clip0_1_2)">
<path d="M558.262 0H393.005V79.262H558.262V0Z" fill="#FFD200"/>
<path d="M830.108 0H575.252V79.262H830.108V0Z" fill="#FFD200"/>
<path d="M376.018 0H275.269V79.262H376.018V0Z" fill="#FFD200"/>
<path d="M258.295 0H214.886V79.262H258.295V0Z" fill="#FFD200"/>
<path d="M15.6421 79.209H32.6333V237.632H15.6421V79.209Z" fill="black"/>
<path d="M138.886 211.006H138.438C127.874 233.497 120.99 240.149 99.182 240.149C81.0277 240.149 72.9896 220.607 72.9896 206.373V128.321H89.9868V199.029C89.9868 210.775 94.8185 226.153 109.51 226.153C129.49 226.153 138.438 196.256 138.438 175.167V128.321H155.424V237.633H138.886V211.006Z" fill="black"/>
<path d="M197.903 128.321H214.415V155.21H214.886C220.639 141.419 230.043 125.82 249.091 125.82C268.139 125.82 275.269 142.312 275.269 154.517H275.724C278.5 146.94 288.351 125.82 309.254 125.82C326.945 125.82 335.663 138.668 335.663 156.593V237.632H318.673V164.174C318.673 155.661 318.673 139.826 303.282 139.826C283.77 139.826 275.269 170.591 275.269 188.456V237.632H258.295V166.889C258.295 155.209 258.295 139.826 243.137 139.826C223.624 139.826 214.885 169.659 214.885 190.768V237.631H197.902V128.321H197.903Z" fill="black"/>
<path d="M376.018 128.321H393.005V237.633H376.018V128.321Z" fill="black"/>
<path d="M435.485 128.321H452.017V155.21H452.478C459.134 141.419 470.159 125.82 491.746 125.82C510.781 125.82 517.907 142.312 517.907 154.517V237.633H500.947V166.89C500.947 155.21 500.947 139.827 485.782 139.827C462.809 139.827 452.478 169.66 452.478 190.769V237.632H435.485V128.321V128.321Z" fill="black"/>
<path d="M558.262 128.321H575.236V237.633H558.262V128.321Z" fill="black"/>
</g>
<defs>
<clipPath id="clip0_1_2">
<rect width="842" height="240" fill="white"/>
</clipPath>
</defs>
</svg>
